<svg xmlns="http://www.w3.org/2000/svg" viewBox="0 0 630 100" fill="none" stroke="currentColor" stroke-linecap="square" stroke-linejoin="miter" stroke-miterlimit="2" role="img" aria-label="Catalyst">
  <title>Catalyst</title>
  <svg data-part="mark" x="0" y="0" width="100" height="100" viewBox="0 0 64 64" overflow="visible" stroke-width="6">
    <path d="M 8 44 L 32 20 L 56 44"/>
    <path d="M 18 52 L 32 36 L 46 52" stroke-width="4" opacity="0.75"/>
  </svg>
  <g data-part="wordmark" transform="translate(150, 0)" fill="currentColor" fill-rule="evenodd" stroke="none">
    <!-- Candidate B — mono (JetBrains Mono Regular) -->
    <path d="M30.80 80L30.80 80Q20.80 80 14.80 74.40Q8.80 68.80 8.80 59L8.80 59L8.80 44Q8.80 34.20 14.80 28.60Q20.80 23 30.80 23L30.80 23Q40.30 23 46.15 28.10Q52 33.20 52.30 42L52.30 42L43.30 42Q43 36.70 39.70 33.85Q36.40 31 30.80 31L30.80 31Q24.90 31 21.35 34.35Q17.80 37.70 17.80 43.90L17.80 43.90L17.80 59Q17.80 65.20 21.35 68.60Q24.90 72 30.80 72L30.80 72Q36.40 72 39.70 69.10Q43 66.20 43.30 61L43.30 61L52.30 61Q52 69.80 46.15 74.90Q40.30 80 30.80 80ZM85.20 80L85.20 80Q76.70 80 71.70 75.25Q66.70 70.50 66.70 62.80L66.70 62.80Q66.70 57.70 69 53.90Q71.30 50.10 75.40 47.95Q79.50 45.80 84.80 45.80L84.80 45.80L101.80 45.80L101.80 41.50Q101.80 30.80 90.10 30.80L90.10 30.80Q84.90 30.80 81.70 32.70Q78.50 34.60 78.30 38L78.30 38L69.30 38Q69.80 31.50 75.35 27.25Q80.90 23 90.10 23L90.10 23Q100.10 23 105.45 27.80Q110.80 32.60 110.80 41.20L110.80 41.20L110.80 79L101.90 79L101.90 69L101.70 69Q100.90 74.10 96.60 77.05Q92.30 80 85.20 80ZM87.40 72.40L87.40 72.40Q94 72.40 97.90 69.20Q101.80 66 101.80 60.50L101.80 60.50L101.80 52.80L85.80 52.80Q81.40 52.80 78.65 55.45Q75.90 58.10 75.90 62.50L75.90 62.50Q75.90 67.10 78.95 69.75Q82 72.40 87.40 72.40ZM171.50 79L155.50 79Q148.70 79 144.60 75.05Q140.50 71.10 140.50 64.50L140.50 64.50L140.50 32.20L124.70 32.20L124.70 24L140.50 24L140.50 8.50L149.50 8.50L149.50 24L172 24L172 32.20L149.50 32.20L149.50 64.50Q149.50 67.30 151.15 69.05Q152.80 70.80 155.50 70.80L155.50 70.80L171.50 70.80L171.50 79ZM205.20 80L205.20 80Q196.70 80 191.70 75.25Q186.70 70.50 186.70 62.80L186.70 62.80Q186.70 57.70 189 53.90Q191.30 50.10 195.40 47.95Q199.50 45.80 204.80 45.80L204.80 45.80L221.80 45.80L221.80 41.50Q221.80 30.80 210.10 30.80L210.10 30.80Q204.90 30.80 201.70 32.70Q198.50 34.60 198.30 38L198.30 38L189.30 38Q189.80 31.50 195.35 27.25Q200.90 23 210.10 23L210.10 23Q220.10 23 225.45 27.80Q230.80 32.60 230.80 41.20L230.80 41.20L230.80 79L221.90 79L221.90 69L221.70 69Q220.90 74.10 216.60 77.05Q212.30 80 205.20 80ZM207.40 72.40L207.40 72.40Q214 72.40 217.90 69.20Q221.80 66 221.80 60.50L221.80 60.50L221.80 52.80L205.80 52.80Q201.40 52.80 198.65 55.45Q195.90 58.10 195.90 62.50L195.90 62.50Q195.90 67.10 198.95 69.75Q202 72.40 207.40 72.40ZM295 79L278 79Q270.70 79 266.35 74.75Q262 70.50 262 63.50L262 63.50L262 14.20L243 14.20L243 6L271 6L271 63.50Q271 66.90 272.90 68.85Q274.80 70.80 278 70.80L278 70.80L295 70.80L295 79ZM327.20 97L317.80 97L325.90 75.60L305.40 24L315.10 24L328.10 58Q328.90 60 329.60 62.20Q330.30 64.40 330.60 66L330.60 66Q330.90 64.40 331.60 62.20Q332.30 60 333 58L333 58L345.10 24L354.60 24L327.20 97ZM392.20 79.80L387.80 79.80Q378.60 79.80 373.55 75.65Q368.50 71.50 368.50 63.90L368.50 63.90L377.50 63.90Q377.50 67.70 380.20 69.85Q382.90 72 387.80 72L387.80 72L392.20 72Q397.20 72 399.95 69.80Q402.70 67.60 402.70 63.60L402.70 63.60Q402.70 56.50 396.20 55.60L396.20 55.60L381 53.40Q375.40 52.60 372.30 48.75Q369.20 44.90 369.20 38.60L369.20 38.60Q369.20 31.40 374.15 27.30Q379.10 23.20 387.80 23.20L387.80 23.20L392.20 23.20Q400.20 23.20 405.25 27.15Q410.30 31.10 410.70 37.50L410.70 37.50L401.60 37.50Q401.40 34.60 398.85 32.70Q396.30 30.80 392.20 30.80L392.20 30.80L387.80 30.80Q383.20 30.80 380.60 32.90Q378 35 378 38.60L378 38.60Q378 44.40 383.30 45.20L383.30 45.20L397.50 47.20Q411.50 49.20 411.50 63.60L411.50 63.60Q411.50 71.30 406.45 75.55Q401.40 79.80 392.20 79.80L392.20 79.80ZM471.50 79L455.50 79Q448.70 79 444.60 75.05Q440.50 71.10 440.50 64.50L440.50 64.50L440.50 32.20L424.70 32.20L424.70 24L440.50 24L440.50 8.50L449.50 8.50L449.50 24L472 24L472 32.20L449.50 32.20L449.50 64.50Q449.50 67.30 451.15 69.05Q452.80 70.80 455.50 70.80L455.50 70.80L471.50 70.80L471.50 79Z"/>
  </g>
</svg>
