<svg xmlns="http://www.w3.org/2000/svg" viewBox="0 0 480 100" fill="currentColor" fill-rule="evenodd" role="img" aria-label="Catalyst">
  <title>Catalyst</title>
  <!-- Candidate C — pixel mono (Departure Mono-inspired, 5-col x 10-row bitmap per glyph, 10-unit pixel) -->
  <path d="M10 20h30v10h-30zM0 30h10v40h-10zM40 30h10v10h-10zM40 60h10v10h-10zM10 70h30v10h-30zM70 20h30v10h-30zM100 30h10v50h-10zM70 40h30v10h-30zM60 50h10v20h-10zM70 70h30v10h-30zM130 0h10v70h-10zM120 20h10v10h-10zM140 20h10v10h-10zM160 60h10v10h-10zM140 70h20v10h-20zM190 20h30v10h-30zM220 30h10v50h-10zM190 40h30v10h-30zM180 50h10v20h-10zM190 70h30v10h-30zM260 0h10v70h-10zM250 0h10v10h-10zM250 70h30v10h-30zM300 20h10v40h-10zM340 20h10v70h-10zM310 60h30v10h-30zM330 80h10v10h-10zM300 90h40v10h-40zM370 20h40v10h-40zM360 30h10v20h-10zM360 50h40v10h-40zM400 60h10v10h-10zM360 70h40v10h-40zM430 0h10v70h-10zM420 20h10v10h-10zM440 20h10v10h-10zM460 60h10v10h-10zM440 70h20v10h-20z"/>
</svg>
