<svg xmlns="http://www.w3.org/2000/svg" viewBox="0 0 368 100" fill="currentColor" fill-rule="evenodd" role="img" aria-label="Catalyst">
  <title>Catalyst</title>
  <!-- Candidate A — sans (Inter Regular) -->
  <path d="M29.93 80.17L29.93 80.17Q22.51 80.17 16.92 76.66Q11.33 73.14 8.20 66.79Q5.08 60.45 5.08 52.05L5.08 52.05Q5.08 43.50 8.20 37.13Q11.33 30.76 16.92 27.24Q22.51 23.73 29.93 23.73L29.93 23.73Q33.89 23.73 37.40 24.75Q40.92 25.78 43.82 27.71Q46.73 29.63 48.83 32.44Q50.93 35.25 52.05 38.81L52.05 38.81L43.60 41.21Q43.02 39.11 41.80 37.35Q40.58 35.59 38.84 34.30Q37.11 33.00 34.86 32.30Q32.62 31.59 29.93 31.59L29.93 31.59Q24.46 31.59 20.95 34.44Q17.43 37.30 15.72 41.94Q14.01 46.58 14.01 52.05L14.01 52.05Q14.01 57.42 15.72 62.03Q17.43 66.65 20.95 69.48Q24.46 72.31 29.93 72.31L29.93 72.31Q32.67 72.31 34.96 71.58Q37.26 70.85 39.04 69.50Q40.82 68.16 42.04 66.30Q43.26 64.45 43.85 62.25L43.85 62.25L52.25 64.64Q51.17 68.31 49.05 71.16Q46.92 74.02 43.99 76.05Q41.06 78.07 37.50 79.12Q33.94 80.17 29.93 80.17ZM80.13 80.27L80.13 80.27Q74.95 80.27 70.73 78.32Q66.50 76.36 64.01 72.60Q61.52 68.84 61.52 63.47L61.52 63.47Q61.52 58.79 63.38 55.86Q65.23 52.93 68.33 51.24Q71.44 49.56 75.20 48.73Q78.96 47.90 82.76 47.41L82.76 47.41Q87.65 46.77 90.72 46.43Q93.80 46.09 95.29 45.26Q96.78 44.43 96.78 42.43L96.78 42.43L96.78 42.13Q96.78 38.72 95.51 36.35Q94.24 33.98 91.70 32.71Q89.16 31.44 85.35 31.44L85.35 31.44Q81.45 31.44 78.66 32.66Q75.88 33.88 74.15 35.71Q72.41 37.54 71.53 39.45L71.53 39.45L63.09 36.67Q65.19 31.69 68.75 28.88Q72.31 26.07 76.61 24.90Q80.91 23.73 85.11 23.73L85.11 23.73Q87.84 23.73 91.33 24.39Q94.82 25.04 98.07 27.00Q101.32 28.95 103.44 32.78Q105.57 36.62 105.57 43.01L105.57 43.01L105.57 79L96.92 79L96.92 71.58L96.34 71.58Q95.41 73.48 93.36 75.51Q91.31 77.54 88.04 78.90Q84.77 80.27 80.13 80.27ZM81.64 72.51L81.64 72.51Q86.52 72.51 89.89 70.60Q93.26 68.70 95.02 65.65Q96.78 62.59 96.78 59.27L96.78 59.27L96.78 51.71Q96.24 52.34 94.43 52.85Q92.63 53.37 90.31 53.76Q87.99 54.15 85.82 54.42Q83.64 54.68 82.37 54.83L82.37 54.83Q79.20 55.22 76.44 56.17Q73.68 57.13 72.02 58.96Q70.36 60.79 70.36 63.91L70.36 63.91Q70.36 66.74 71.83 68.65Q73.29 70.55 75.83 71.53Q78.37 72.51 81.64 72.51ZM114.26 24.41L142.48 24.41L142.48 31.93L114.26 31.93L114.26 24.41ZM122.46 65.52L122.46 11.42L131.25 11.42L131.25 64.84Q131.25 68.50 132.74 70.19Q134.23 71.87 137.70 71.87L137.70 71.87Q138.53 71.87 139.82 71.68Q141.11 71.48 142.19 71.29L142.19 71.29L143.99 78.71Q142.63 79.20 140.89 79.44Q139.16 79.68 137.45 79.68L137.45 79.68Q130.37 79.68 126.42 75.95Q122.46 72.21 122.46 65.52L122.46 65.52ZM168.99 80.27L168.99 80.27Q163.82 80.27 159.59 78.32Q155.37 76.36 152.88 72.60Q150.39 68.84 150.39 63.47L150.39 63.47Q150.39 58.79 152.25 55.86Q154.10 52.93 157.20 51.24Q160.30 49.56 164.06 48.73Q167.82 47.90 171.63 47.41L171.63 47.41Q176.51 46.77 179.59 46.43Q182.67 46.09 184.16 45.26Q185.64 44.43 185.64 42.43L185.64 42.43L185.64 42.13Q185.64 38.72 184.38 36.35Q183.11 33.98 180.57 32.71Q178.03 31.44 174.22 31.44L174.22 31.44Q170.31 31.44 167.53 32.66Q164.75 33.88 163.01 35.71Q161.28 37.54 160.40 39.45L160.40 39.45L151.95 36.67Q154.05 31.69 157.62 28.88Q161.18 26.07 165.48 24.90Q169.78 23.73 173.97 23.73L173.97 23.73Q176.71 23.73 180.20 24.39Q183.69 25.04 186.94 27.00Q190.19 28.95 192.31 32.78Q194.43 36.62 194.43 43.01L194.43 43.01L194.43 79L185.79 79L185.79 71.58L185.21 71.58Q184.28 73.48 182.23 75.51Q180.18 77.54 176.90 78.90Q173.63 80.27 168.99 80.27ZM170.51 72.51L170.51 72.51Q175.39 72.51 178.76 70.60Q182.13 68.70 183.89 65.65Q185.64 62.59 185.64 59.27L185.64 59.27L185.64 51.71Q185.11 52.34 183.30 52.85Q181.49 53.37 179.17 53.76Q176.86 54.15 174.68 54.42Q172.51 54.68 171.24 54.83L171.24 54.83Q168.07 55.22 165.31 56.17Q162.55 57.13 160.89 58.96Q159.23 60.79 159.23 63.91L159.23 63.91Q159.23 66.74 160.69 68.65Q162.16 70.55 164.70 71.53Q167.24 72.51 170.51 72.51ZM209.86 6.25L218.65 6.25L218.65 79L209.86 79L209.86 6.25ZM233.20 98.78L233.20 98.78L235.45 91.16L236.38 91.40Q239.06 92.09 241.26 91.77Q243.46 91.45 245.21 89.60Q246.97 87.74 248.29 83.83L248.29 83.83L249.85 79.29L229.00 24.41L238.62 24.41L250.24 56.78Q252.10 61.86 253.37 66.84Q254.64 71.82 256.05 76.51L256.05 76.51L252.83 76.51Q254.25 71.82 255.54 66.82Q256.84 61.81 258.64 56.78L258.64 56.78L270.36 24.41L279.93 24.41L255.96 87.15Q254.30 91.50 251.98 94.31Q249.66 97.12 246.58 98.46Q243.51 99.80 239.65 99.80L239.65 99.80Q237.30 99.80 235.60 99.46Q233.89 99.12 233.20 98.78ZM308.84 80.17L308.84 80.17Q303.22 80.17 298.85 78.54Q294.48 76.90 291.65 73.68Q288.82 70.46 287.84 65.77L287.84 65.77L296.19 63.77Q297.36 68.26 300.61 70.36Q303.86 72.46 308.74 72.46L308.74 72.46Q314.45 72.46 317.85 70.02Q321.24 67.57 321.24 64.21L321.24 64.21Q321.24 61.37 319.26 59.49Q317.29 57.61 313.23 56.69L313.23 56.69L304.15 54.54Q296.73 52.78 293.12 49.09Q289.50 45.41 289.50 39.64L289.50 39.64Q289.50 34.96 292.14 31.37Q294.78 27.78 299.34 25.75Q303.91 23.73 309.72 23.73L309.72 23.73Q315.33 23.73 319.26 25.41Q323.19 27.10 325.66 30.05Q328.13 33.00 329.35 36.86L329.35 36.86L321.39 38.91Q320.26 35.98 317.65 33.59Q315.04 31.20 309.77 31.20L309.77 31.20Q304.88 31.20 301.64 33.44Q298.39 35.69 298.39 39.11L298.39 39.11Q298.39 42.13 300.59 43.97Q302.78 45.80 307.57 46.92L307.57 46.92L315.82 48.87Q323.24 50.63 326.81 54.32Q330.37 58.00 330.37 63.62L330.37 63.62Q330.37 68.40 327.66 72.14Q324.95 75.88 320.09 78.02Q315.23 80.17 308.84 80.17ZM336.33 24.41L364.55 24.41L364.55 31.93L336.33 31.93L336.33 24.41ZM344.53 65.52L344.53 11.42L353.32 11.42L353.32 64.84Q353.32 68.50 354.81 70.19Q356.30 71.87 359.77 71.87L359.77 71.87Q360.60 71.87 361.89 71.68Q363.18 71.48 364.26 71.29L364.26 71.29L366.06 78.71Q364.70 79.20 362.96 79.44Q361.23 79.68 359.52 79.68L359.52 79.68Q352.44 79.68 348.49 75.95Q344.53 72.21 344.53 65.52L344.53 65.52Z"/>
</svg>
