<svg xmlns="http://www.w3.org/2000/svg" viewBox="0 0 564.71 271.77" fill="none" stroke="currentColor" stroke-linecap="square" stroke-linejoin="miter" stroke-miterlimit="2" role="img" aria-label="Catalyst">
  <title>Catalyst</title>
  <svg data-part="mark" x="232.64" y="0" width="99.43" height="99.43" viewBox="0 0 64 64" overflow="visible" stroke-width="6">
    <path d="M 8 44 L 32 20 L 56 44"/>
    <path d="M 18 52 L 32 36 L 46 52" stroke-width="4" opacity="0.75"/>
  </svg>
  <g data-part="wordmark" transform="translate(0, 241.2)" fill="currentColor" fill-rule="evenodd" stroke="none">
    <path d="M43.57 2L43.57 2Q33.43 2 25.21 -2.29Q17 -6.57 12.21 -14.71Q7.43 -22.86 7.43 -34.29L7.43 -34.29L7.43 -36.14Q7.43 -47.57 12.21 -55.64Q17 -63.71 25.21 -68.07Q33.43 -72.43 43.57 -72.43L43.57 -72.43Q53.71 -72.43 60.86 -68.71Q68 -65 72.36 -58.86Q76.71 -52.71 78 -45.29L78 -45.29L63.71 -42.29Q63 -47 60.71 -50.86Q58.43 -54.71 54.29 -57Q50.14 -59.29 43.86 -59.29L43.86 -59.29Q37.71 -59.29 32.79 -56.5Q27.86 -53.71 25 -48.5Q22.14 -43.29 22.14 -35.86L22.14 -35.86L22.14 -34.57Q22.14 -27.14 25 -21.86Q27.86 -16.57 32.79 -13.86Q37.71 -11.14 43.86 -11.14L43.86 -11.14Q53.14 -11.14 58 -15.93Q62.86 -20.71 64.14 -28.14L64.14 -28.14L78.43 -24.86Q76.71 -17.57 72.36 -11.43Q68 -5.29 60.86 -1.64Q53.71 2 43.57 2M116.57 2L116.57 2Q109 2 103.07 -0.57Q97.14 -3.14 93.64 -8.14Q90.14 -13.14 90.14 -20.29L90.14 -20.29Q90.14 -27.57 93.64 -32.36Q97.14 -37.14 103.21 -39.57Q109.29 -42 117 -42L117 -42L138.43 -42L138.43 -46.57Q138.43 -52.71 134.71 -56.43Q131 -60.14 123.29 -60.14L123.29 -60.14Q115.71 -60.14 111.71 -56.57Q107.71 -53 106.43 -47.29L106.43 -47.29L92.71 -51.71Q94.43 -57.43 98.21 -62.07Q102 -66.71 108.29 -69.57Q114.57 -72.43 123.43 -72.43L123.43 -72.43Q137.14 -72.43 145 -65.43Q152.86 -58.43 152.86 -45.57L152.86 -45.57L152.86 -16.57Q152.86 -12.29 156.86 -12.29L156.86 -12.29L162.86 -12.29L162.86 0L151.86 0Q146.86 0 143.71 -2.57Q140.57 -5.14 140.57 -9.57L140.57 -9.57L140.57 -10L138.43 -10Q137.29 -7.86 135 -5Q132.71 -2.14 128.29 -0.07Q123.86 2 116.57 2M118.71 -10.14L118.71 -10.14Q127.57 -10.14 133 -15.21Q138.43 -20.29 138.43 -29.14L138.43 -29.14L138.43 -30.57L117.86 -30.57Q112 -30.57 108.43 -28.07Q104.86 -25.57 104.86 -20.71L104.86 -20.71Q104.86 -15.86 108.57 -13Q112.29 -10.14 118.71 -10.14M222.29 0L202.86 0Q196.43 0 192.64 -3.86Q188.86 -7.71 188.86 -14.14L188.86 -14.14L188.86 -58L169.43 -58L169.43 -70.43L188.86 -70.43L188.86 -93.71L203.57 -93.71L203.57 -70.43L224.57 -70.43L224.57 -58L203.57 -58L203.57 -16.71Q203.57 -12.43 207.57 -12.43L207.57 -12.43L222.29 -12.43L222.29 0M263 2L263 2Q255.43 2 249.5 -0.57Q243.57 -3.14 240.07 -8.14Q236.57 -13.14 236.57 -20.29L236.57 -20.29Q236.57 -27.57 240.07 -32.36Q243.57 -37.14 249.64 -39.57Q255.71 -42 263.43 -42L263.43 -42L284.86 -42L284.86 -46.57Q284.86 -52.71 281.14 -56.43Q277.43 -60.14 269.71 -60.14L269.71 -60.14Q262.14 -60.14 258.14 -56.57Q254.14 -53 252.86 -47.29L252.86 -47.29L239.14 -51.71Q240.86 -57.43 244.64 -62.07Q248.43 -66.71 254.71 -69.57Q261 -72.43 269.86 -72.43L269.86 -72.43Q283.57 -72.43 291.43 -65.43Q299.29 -58.43 299.29 -45.57L299.29 -45.57L299.29 -16.57Q299.29 -12.29 303.29 -12.29L303.29 -12.29L309.29 -12.29L309.29 0L298.29 0Q293.29 0 290.14 -2.57Q287 -5.14 287 -9.57L287 -9.57L287 -10L284.86 -10Q283.71 -7.86 281.43 -5Q279.14 -2.14 274.71 -0.07Q270.29 2 263 2M265.14 -10.14L265.14 -10.14Q274 -10.14 279.43 -15.21Q284.86 -20.29 284.86 -29.14L284.86 -29.14L284.86 -30.57L264.29 -30.57Q258.43 -30.57 254.86 -28.07Q251.29 -25.57 251.29 -20.71L251.29 -20.71Q251.29 -15.86 255 -13Q258.71 -10.14 265.14 -10.14M337.57 0L322.86 0L322.86 -100L337.57 -100L337.57 0M410.57 28.57L366.86 28.57L366.86 15.71L406.14 15.71Q410.14 15.71 410.14 11.43L410.14 11.43L410.14 -10.29L407.86 -10.29Q406.57 -7.43 403.93 -4.79Q401.29 -2.14 396.86 -0.43Q392.43 1.29 385.71 1.29L385.71 1.29Q377.71 1.29 371.43 -2.29Q365.14 -5.86 361.57 -12.43Q358 -19 358 -28L358 -28L358 -70.43L372.71 -70.43L372.71 -29.14Q372.71 -20 377.29 -15.64Q381.86 -11.29 390 -11.29L390 -11.29Q399 -11.29 404.5 -17.29Q410 -23.29 410 -34.71L410 -34.71L410 -70.43L424.71 -70.43L424.71 14.43Q424.71 20.86 420.93 24.71Q417.14 28.57 410.57 28.57L410.57 28.57M474.57 2L474.57 2Q461.14 2 452.29 -4Q443.43 -10 441.43 -22.14L441.43 -22.14L455.14 -25.43Q456.29 -19.57 459 -16.14Q461.71 -12.71 465.79 -11.29Q469.86 -9.86 474.57 -9.86L474.57 -9.86Q481.57 -9.86 485.36 -12.57Q489.14 -15.29 489.14 -19.57L489.14 -19.57Q489.14 -23.86 485.57 -25.86Q482 -27.86 475 -29.14L475 -29.14L470.14 -30Q463 -31.29 457.14 -33.71Q451.29 -36.14 447.86 -40.43Q444.43 -44.71 444.43 -51.43L444.43 -51.43Q444.43 -61.43 451.86 -66.93Q459.29 -72.43 471.57 -72.43L471.57 -72.43Q483.43 -72.43 491.07 -67.07Q498.71 -61.71 501 -52.57L501 -52.57L487.29 -48.71Q486 -55.14 481.86 -57.79Q477.71 -60.43 471.57 -60.43L471.57 -60.43Q465.57 -60.43 462.14 -58.21Q458.71 -56 458.71 -52L458.71 -52Q458.71 -47.71 462.07 -45.71Q465.43 -43.71 471.14 -42.71L471.14 -42.71L476.14 -41.86Q483.71 -40.57 490 -38.29Q496.29 -36 499.93 -31.71Q503.57 -27.43 503.57 -20.29L503.57 -20.29Q503.57 -9.71 495.71 -3.86Q487.86 2 474.57 2M565.86 0L546.43 0Q540 0 536.21 -3.86Q532.43 -7.71 532.43 -14.14L532.43 -14.14L532.43 -58L513 -58L513 -70.43L532.43 -70.43L532.43 -93.71L547.14 -93.71L547.14 -70.43L568.14 -70.43L568.14 -58L547.14 -58L547.14 -16.71Q547.14 -12.43 551.14 -12.43L551.14 -12.43L565.86 -12.43L565.86 0"/>
  </g>
</svg>
