<svg xmlns="http://www.w3.org/2000/svg" viewBox="0 0 656 100" fill="none" stroke="currentColor" stroke-width="10" stroke-linecap="square" stroke-linejoin="miter" stroke-miterlimit="2" role="img" aria-label="Catalyst">
  <title>Catalyst</title>
  <path data-letter="C"  d="M 65 15 L 15 15 L 15 85 L 65 85"/>
  <path data-letter="A1" d="M 91 95 L 123 5 L 155 95 M 104 62 L 142 62"/>
  <path data-letter="T1" d="M 181 10 L 233 10 M 207 10 L 207 95"/>
  <path data-letter="A2" d="M 259 95 L 291 5 L 323 95 M 272 62 L 310 62"/>
  <path data-letter="L"  d="M 349 5 L 349 90 L 397 90"/>
  <path data-letter="Y"  d="M 423 5 L 455 50 L 487 5 M 455 50 L 455 95"/>
  <path data-letter="S"  d="M 573 20 Q 513 10 513 35 T 573 65 Q 513 90 513 75"/>
  <path data-letter="T2" d="M 599 10 L 651 10 M 625 10 L 625 95"/>
</svg>
